<?xml version="1.0" encoding="utf-8"?>
<svg version="1.1" xmlns="http://www.w3.org/2000/svg" xmlns:xlink="http://www.w3.org/1999/xlink" x="0px" y="0px"
	viewBox="0 0 24 24" enable-background="new 0 0 24 24" xml:space="preserve">
	<g>
		<g>
			<g>
				<g>
					<path d="M20.3,2.6H3.7c-0.4,0-0.8,0.1-1.2,0.2V1.1C2.5,0.5,2,0,1.4,0h0C0.8,0,0.3,0.5,0.3,1.1V6v1.9v12.7c0,1.9,1.5,3.4,3.4,3.4
					h16.6c1.9,0,3.4-1.5,3.4-3.4V6C23.7,4.2,22.2,2.6,20.3,2.6z M21.5,20.6c0,0.7-0.5,1.2-1.2,1.2H3.7c-0.7,0-1.2-0.5-1.2-1.2V7.9V6
					c0-0.7,0.5-1.2,1.2-1.2h16.6c0.7,0,1.2,0.5,1.2,1.2V20.6z" />
				</g>
			</g>
			<g>
				<path d="M18.2,9l-5.7,5.1c-0.1-0.1-0.2-0.1-0.3-0.2l-0.4-5.6L11.3,14c-0.1,0.1-0.2,0.1-0.3,0.2L7.4,12c-0.2-0.2-0.6-0.1-0.7,0.2
				c-0.2,0.2-0.1,0.6,0.2,0.7l3.8,2.4c0.1,0.5,0.6,0.8,1.1,0.8c0.5,0,1-0.4,1.1-0.9l6.1-5.4c0.2-0.2,0.2-0.5,0-0.7
				C18.8,8.9,18.4,8.8,18.2,9z" />
			</g>
		</g>
	</g>
</svg>